<?xml version="1.0" encoding="UTF-8"?>
<svg version="1.1" xmlns="http://www.w3.org/2000/svg" width="120" height="120">
<path d="M0 0 C2.39762543 1.22937312 4.68965348 2.55487847 6.98486328 3.96582031 C7.773125 4.42601562 8.56138672 4.88621094 9.37353516 5.36035156 C12.49265919 7.19200738 15.53714183 9.08400601 18.54736328 11.09082031 C17.96385756 14.44357553 16.92705327 16.08727883 14.52783203 18.47363281 C13.91746094 19.08335938 13.30708984 19.69308594 12.67822266 20.32128906 C12.03691406 20.94648438 11.39560547 21.57167969 10.73486328 22.21582031 C9.79030273 23.16521484 9.79030273 23.16521484 8.82666016 24.13378906 C3.56545022 29.3342715 0.34627642 31.38335646 -7.26513672 31.46582031 C-8.44720703 31.49417969 -9.62927734 31.52253906 -10.84716797 31.55175781 C-18.12943758 30.62076343 -22.93594963 26.15128842 -27.95263672 21.15332031 C-28.50177734 20.64091797 -29.05091797 20.12851562 -29.61669922 19.60058594 C-31.89586962 17.34718506 -33.35581289 15.76343693 -33.81982422 12.54003906 C-31.6040572 8.57065071 -27.98667038 6.97418182 -24.07763672 4.84082031 C-23.29646484 4.39480469 -22.51529297 3.94878906 -21.71044922 3.48925781 C-14.70701298 -0.46816335 -7.97381752 -2.95585272 0 0 Z " fill="#27B9FD" transform="translate(67.45263671875,0.9091796875)"/>
<path d="M0 0 C1.12148438 -0.02578125 2.24296875 -0.0515625 3.3984375 -0.078125 C6.95139283 0.28319249 8.78750117 1.12445542 11.625 3.25 C12.625 5.25 12.625 5.25 12.484375 8.6640625 C11.94584128 16.18232521 11.94584128 16.18232521 14.94384766 22.71972656 C17.75116747 24.81998669 20.62459672 26.20137502 23.81640625 27.671875 C24.74324219 28.19265625 25.67007813 28.7134375 26.625 29.25 C26.625 33.25 26.625 33.25 25.015625 35.03125 C24.30921875 35.5984375 23.6028125 36.165625 22.875 36.75 C20.49652822 38.68615948 18.49389722 40.40423857 16.5 42.75 C14.625 44.25 14.625 44.25 12.046875 44.13671875 C7.54993499 42.9714158 3.9727503 40.92476906 0 38.5625 C-0.75023437 38.14033203 -1.50046875 37.71816406 -2.2734375 37.28320312 C-6.87467494 34.57875239 -10.15105481 32.27553847 -12.375 27.25 C-12.89880177 23.33739311 -12.88872476 19.50405751 -12.8125 15.5625 C-12.81958984 14.51771484 -12.82667969 13.47292969 -12.83398438 12.39648438 C-12.77012939 4.76826977 -12.77012939 4.76826977 -11.03540039 2.49291992 C-7.59556136 -0.08202795 -4.14341063 0.05688893 0 0 Z " fill="#2765F8" transform="translate(16.375,59.75)"/>
<path d="M0 0 C1.11890625 -0.02578125 2.2378125 -0.0515625 3.390625 -0.078125 C10.85714079 0.65116259 15.11376278 5.14460592 20.125 10.25 C20.76566406 10.8790625 21.40632813 11.508125 22.06640625 12.15625 C22.97326172 13.06890625 22.97326172 13.06890625 23.8984375 14 C24.44677246 14.55171875 24.99510742 15.1034375 25.56005859 15.671875 C26.75 17.25 26.75 17.25 26.75 20.25 C23.47961465 22.28643096 20.18088666 24.27181445 16.875 26.25 C15.9571875 26.82234375 15.039375 27.3946875 14.09375 27.984375 C7.88001726 31.66010423 2.99028221 33.48618531 -4.25 32.25 C-7.28125 31.1484375 -7.28125 31.1484375 -9.75 29.625 C-10.65363281 29.08359375 -11.55726562 28.5421875 -12.48828125 27.984375 C-13.39964844 27.41203125 -14.31101562 26.8396875 -15.25 26.25 C-17.14502537 25.12363954 -19.04081571 23.99856474 -20.9375 22.875 C-22.37638099 22.00227281 -23.81442774 21.12815917 -25.25 20.25 C-24.75371101 16.15386835 -23.89571937 14.44910948 -20.6875 11.875 C-19.61435547 10.99328125 -19.61435547 10.99328125 -18.51953125 10.09375 C-17.77058594 9.4853125 -17.02164063 8.876875 -16.25 8.25 C-14.78722246 6.96336845 -13.3286884 5.67189203 -11.875 4.375 C-7.75323965 0.71303762 -5.58545876 0.07651313 0 0 Z " fill="#2336E2" transform="translate(59.25,87.75)"/>
<path d="M0 0 C1.12148437 -0.02578125 2.24296875 -0.0515625 3.3984375 -0.078125 C7.05794738 0.29402855 8.7361171 0.9998454 11.625 3.25 C12.67629617 7.25383146 12.36634354 11.37511646 12.3125 15.5 C12.34021484 16.62019531 12.36792969 17.74039063 12.39648438 18.89453125 C12.38139748 24.00596996 12.36026831 28.13022167 9.0859375 32.23828125 C5.65379881 35.55477567 1.74871669 37.93999804 -2.4375 40.1875 C-3.13166016 40.58517578 -3.82582031 40.98285156 -4.54101562 41.39257812 C-11.45294606 45.20628333 -11.45294606 45.20628333 -15.375 44.25 C-17.57749015 42.57317083 -19.34589488 41.02453424 -21.25 39.0625 C-21.76046875 38.57974609 -22.2709375 38.09699219 -22.796875 37.59960938 C-25.09070961 35.29027588 -26.33102452 33.85598206 -26.5703125 30.55859375 C-24.86426441 27.26357931 -22.77523922 26.86330346 -19.375 25.5 C-15.0784422 23.32499361 -15.0784422 23.32499361 -12.76123047 19.3203125 C-12.24926749 15.52824404 -12.32525696 11.83042972 -12.46484375 8.015625 C-12.375 4.25 -12.375 4.25 -11.06640625 2.296875 C-7.45747976 0.06317454 -4.14001483 0.05684231 0 0 Z " fill="#2F39ED" transform="translate(103.375,59.75)"/>
<path d="M0 0 C2.38671875 2.03125 2.38671875 2.03125 4.6875 4.5 C7.5285757 7.67196677 7.5285757 7.67196677 11 10 C10.875 12.3203125 10.875 12.3203125 10 15 C7.3125 16.4921875 7.3125 16.4921875 4 17.875 C0.63045591 19.5038699 0.63045591 19.5038699 -2 22 C-2.99778587 26.15595631 -3.01821293 29.30996109 -2.8125 33.57421875 C-3 37 -3 37 -4.43359375 39.4296875 C-8.25586447 41.76842849 -11.66853211 41.54569143 -16.0625 41.4375 C-16.87783203 41.44458984 -17.69316406 41.45167969 -18.53320312 41.45898438 C-24.443843 41.39584689 -24.443843 41.39584689 -26.72192383 39.77441406 C-29.30141714 36.19318056 -28.59722628 31.57021088 -28.625 27.3125 C-28.67011719 26.34376953 -28.71523438 25.37503906 -28.76171875 24.37695312 C-28.81131995 19.13694083 -28.36037104 15.72018199 -24.96875 11.609375 C-21.32762912 8.00291826 -17.37182765 5.35592621 -12.875 2.9375 C-12.18535156 2.53595703 -11.49570312 2.13441406 -10.78515625 1.72070312 C-4.2490416 -1.89728003 -4.2490416 -1.89728003 0 0 Z " fill="#29B6FD" transform="translate(32,17)"/>
<path d="M0 0 C4.22368046 1.21906657 7.55143007 2.93200777 11.265625 5.23828125 C11.90757813 5.61275391 12.54953125 5.98722656 13.2109375 6.37304688 C17.34829442 8.88683033 21.56386692 11.53289157 23.640625 16.05078125 C24.29891291 20.15485307 24.24897058 24.15410059 24.140625 28.30078125 C24.14449219 29.95207031 24.14449219 29.95207031 24.1484375 31.63671875 C24.07472412 37.63698826 24.07472412 37.63698826 23.640625 40.05078125 C19.56989375 42.76460208 16.41734388 42.38205766 11.640625 42.36328125 C10.41085938 42.38745117 10.41085938 42.38745117 9.15625 42.41210938 C8.36734375 42.41275391 7.5784375 42.41339844 6.765625 42.4140625 C6.04632813 42.41704346 5.32703125 42.42002441 4.5859375 42.4230957 C2.03474237 41.93482103 1.17202569 41.12766457 -0.359375 39.05078125 C-0.79174805 37.1496582 -0.79174805 37.1496582 -0.87109375 35.0390625 C-0.90654297 34.28173828 -0.94199219 33.52441406 -0.97851562 32.74414062 C-1.00107422 31.95845703 -1.02363281 31.17277344 -1.046875 30.36328125 C-1.08103516 29.56599609 -1.11519531 28.76871094 -1.15039062 27.94726562 C-1.23275604 25.98226221 -1.29774567 24.01654429 -1.359375 22.05078125 C-2.09542969 21.77492188 -2.83148438 21.4990625 -3.58984375 21.21484375 C-6.15344847 20.13733429 -8.3395729 18.92794192 -10.671875 17.42578125 C-11.36925781 16.97976562 -12.06664063 16.53375 -12.78515625 16.07421875 C-13.30464844 15.73648437 -13.82414062 15.39875 -14.359375 15.05078125 C-13.89643369 10.30134633 -12.01386606 8.05435058 -8.734375 4.67578125 C-7.89648438 3.78117187 -7.05859375 2.8865625 -6.1953125 1.96484375 C-3.359375 0.05078125 -3.359375 0.05078125 0 0 Z " fill="#2B54F8" transform="translate(91.359375,15.94921875)"/>
<path d="M0 0 C0.78503906 -0.00257812 1.57007812 -0.00515625 2.37890625 -0.0078125 C4.4375 0.125 4.4375 0.125 6.4375 1.125 C6.625 3.5 6.625 3.5 6.4375 6.125 C3.4375 8.125 3.4375 8.125 0.4375 8.125 C0.38851562 8.80046875 0.33953125 9.4759375 0.2890625 10.171875 C0.21429688 11.06390625 0.13953125 11.9559375 0.0625 12.875 C-0.00710937 13.75671875 -0.07671875 14.6384375 -0.1484375 15.546875 C-0.56100055 18.11566382 -1.27410957 19.88341015 -2.5625 22.125 C-1.9025 22.785 -1.2425 23.445 -0.5625 24.125 C-0.3671875 26.5078125 -0.3671875 26.5078125 -0.4375 29.25 C-0.46457031 30.61511719 -0.46457031 30.61511719 -0.4921875 32.0078125 C-0.51539063 32.70648438 -0.53859375 33.40515625 -0.5625 34.125 C2.9025 34.62 2.9025 34.62 6.4375 35.125 C6.48004356 37.12454746 6.47830783 39.12541636 6.4375 41.125 C4.79712605 42.76537395 2.94273159 42.37411331 0.6875 42.4375 C-2.59158662 42.36713333 -4.55128148 42.12957899 -7.625 40.875 C-10.34454868 37.01499542 -10.12316849 33.54419297 -10.12890625 28.90234375 C-10.28914553 25.98844393 -10.28914553 25.98844393 -12.58984375 24.25390625 C-13.24082031 23.88136719 -13.89179687 23.50882813 -14.5625 23.125 C-14.25 20.75 -14.25 20.75 -13.5625 18.125 C-12.5725 17.465 -11.5825 16.805 -10.5625 16.125 C-10.05204941 13.33772673 -10.05204941 13.33772673 -10 10.1875 C-9.76935197 4.43527796 -9.76935197 4.43527796 -7.5625 1.125 C-4.73533905 0.18261302 -2.93073877 -0.00965647 0 0 Z " fill="#2989F8" transform="translate(47.5625,38.875)"/>
<path d="M0 0 C0.87269531 -0.02578125 1.74539062 -0.0515625 2.64453125 -0.078125 C5.68590475 0.31431029 6.99246499 1.13882026 9.1875 3.25 C10.23726964 6.39930893 10.28881595 8.63814456 10.25 11.9375 C10.24097656 12.93136719 10.23195313 13.92523438 10.22265625 14.94921875 C10.21105469 15.70847656 10.19945313 16.46773437 10.1875 17.25 C11.8375 17.91 13.4875 18.57 15.1875 19.25 C14.8575 20.9 14.5275 22.55 14.1875 24.25 C12.8675 24.58 11.5475 24.91 10.1875 25.25 C10.23970703 26.35408203 10.23970703 26.35408203 10.29296875 27.48046875 C10.57066959 37.49092268 10.57066959 37.49092268 7.1875 41.25 C4.34535932 42.19738023 2.51141609 42.38460559 -0.4375 42.375 C-1.63246094 42.37886719 -1.63246094 42.37886719 -2.8515625 42.3828125 C-4.8125 42.25 -4.8125 42.25 -5.8125 41.25 C-5.85330783 39.25041636 -5.85504356 37.24954746 -5.8125 35.25 C-2.3475 34.755 -2.3475 34.755 1.1875 34.25 C1.1875 30.62 1.1875 26.99 1.1875 23.25 C2.1775 22.92 3.1675 22.59 4.1875 22.25 C4.1875 21.59 4.1875 20.93 4.1875 20.25 C3.1975 19.92 2.2075 19.59 1.1875 19.25 C0.8575 15.62 0.5275 11.99 0.1875 8.25 C-2.7825 7.755 -2.7825 7.755 -5.8125 7.25 C-5.85504356 5.25045254 -5.85330783 3.24958364 -5.8125 1.25 C-4.16400947 -0.39849053 -2.26203365 0.0397429 0 0 Z " fill="#4143F1" transform="translate(71.8125,38.75)"/>
<path d="M0 0 C3.63 1.98 7.26 3.96 11 6 C10.01778851 9.92884597 9.66204166 10.71562112 6.98046875 13.3828125 C6.37009766 13.99253906 5.75972656 14.60226563 5.13085938 15.23046875 C4.48955078 15.85566406 3.84824219 16.48085938 3.1875 17.125 C2.24293945 18.07439453 2.24293945 18.07439453 1.27929688 19.04296875 C-3.98191306 24.24345119 -7.20108686 26.29253615 -14.8125 26.375 C-15.99457031 26.40335938 -17.17664063 26.43171875 -18.39453125 26.4609375 C-25.67680087 25.52994312 -30.48331291 21.06046811 -35.5 16.0625 C-36.04914062 15.55009766 -36.59828125 15.03769531 -37.1640625 14.50976562 C-38.71875 12.97265625 -38.71875 12.97265625 -41 10 C-40.84375 7.12109375 -40.84375 7.12109375 -40 5 C-38.68 4.67 -37.36 4.34 -36 4 C-36 4.66 -36 5.32 -36 6 C-36.99 6.495 -36.99 6.495 -38 7 C-38 8.32 -38 9.64 -38 11 C-36.68 11 -35.36 11 -34 11 C-30 15.11111111 -30 15.11111111 -30 19 C-28.68 19.33 -27.36 19.66 -26 20 C-26 20.66 -26 21.32 -26 22 C-22.15158652 23.18031238 -18.241721 23.33235351 -14.25 23.5625 C-13.55261719 23.60568359 -12.85523437 23.64886719 -12.13671875 23.69335938 C-10.42468078 23.79889596 -8.71236439 23.8998991 -7 24 C-7 23.34 -7 22.68 -7 22 C-5.64453125 20.73828125 -5.64453125 20.73828125 -3.8125 19.3125 C-1.13603828 17.11823482 0.87119037 14.99046601 2.8125 12.125 C3.534375 11.09375 4.25625 10.0625 5 9 C5.66 9 6.32 9 7 9 C7 8.34 7 7.68 7 7 C4.525 6.01 4.525 6.01 2 5 C2 4.01 2 3.02 2 2 C1.34 2 0.68 2 0 2 C0 1.34 0 0.68 0 0 Z " fill="#238EF7" transform="translate(75,6)"/>
<path d="M0 0 C3.10227737 3.10227737 2.29412395 6.37277339 2.32226562 10.609375 C2.31904297 11.72828125 2.31582031 12.8471875 2.3125 14 C2.32861328 15.11890625 2.34472656 16.2378125 2.36132812 17.390625 C2.36197266 18.45796875 2.36261719 19.5253125 2.36328125 20.625 C2.36626221 21.60726562 2.36924316 22.58953125 2.37231445 23.6015625 C2.24945068 24.39304687 2.12658691 25.18453125 2 26 C-2.07073125 28.71382083 -5.22328112 28.33127641 -10 28.3125 C-11.22976562 28.33666992 -11.22976562 28.33666992 -12.484375 28.36132812 C-13.27328125 28.36197266 -14.0621875 28.36261719 -14.875 28.36328125 C-15.59429687 28.36626221 -16.31359375 28.36924316 -17.0546875 28.37231445 C-19.59949628 27.88526207 -20.46560105 27.06448542 -22 25 C-22.37674518 22.20748417 -22.60191941 19.61220799 -22.6875 16.8125 C-22.72166016 16.06291016 -22.75582031 15.31332031 -22.79101562 14.54101562 C-22.87334294 12.69453162 -22.93835281 10.84729006 -23 9 C-22.34 9 -21.68 9 -21 9 C-20.87882812 9.83144531 -20.75765625 10.66289063 -20.6328125 11.51953125 C-20.38144531 13.14955078 -20.38144531 13.14955078 -20.125 14.8125 C-19.96257812 15.89144531 -19.80015625 16.97039063 -19.6328125 18.08203125 C-19.14867662 21.17321793 -19.14867662 21.17321793 -17 24 C-14.37302936 24.22137393 -11.99106036 24.28162025 -9.375 24.1875 C-8.66859375 24.17396484 -7.9621875 24.16042969 -7.234375 24.14648438 C-5.48925872 24.1111104 -3.74453392 24.05730221 -2 24 C-1.93941406 22.85402344 -1.87882812 21.70804688 -1.81640625 20.52734375 C-1.73193011 18.99738703 -1.64728573 17.46743959 -1.5625 15.9375 C-1.52318359 15.18533203 -1.48386719 14.43316406 -1.44335938 13.65820312 C-1.18419281 9.05301259 -0.7200579 4.55633276 0 0 Z " fill="#263AE5" transform="translate(113,30)"/>
<path d="M0 0 C0.66 0.33 1.32 0.66 2 1 C2 4.3 2 7.6 2 11 C4.31 11.33 6.62 11.66 9 12 C9.04254356 13.99954746 9.04080783 16.00041636 9 18 C7.35962605 19.64037395 5.50523159 19.24911331 3.25 19.3125 C-0.13453279 19.24946429 -1.97754853 19.00987865 -5.125 17.625 C-7.97932265 13.62894829 -7.40840931 9.7556995 -7 5 C-6.67 5 -6.34 5 -6 5 C-5.67 6.98 -5.34 8.96 -5 11 C-4.01 10.67 -3.02 10.34 -2 10 C-1.67 10.33 -1.34 10.66 -1 11 C-0.67 7.37 -0.34 3.74 0 0 Z " fill="#264EE8" transform="translate(45,62)"/>
<path d="M0 0 C0.33 0 0.66 0 1 0 C1.33 7.26 1.66 14.52 2 22 C2.99 21.67 3.98 21.34 5 21 C7.5808926 21.08744008 10.11691478 21.22868495 12.6875 21.4375 C13.7403418 21.51581055 13.7403418 21.51581055 14.81445312 21.59570312 C16.54338054 21.72507865 18.27175355 21.86182531 20 22 C20.33 21.34 20.66 20.68 21 20 C21 20.66 21 21.32 21 22 C21.66 22 22.32 22 23 22 C22.97679688 20.72382812 22.95359375 19.44765625 22.9296875 18.1328125 C22.91093171 16.4635475 22.89273131 14.7942762 22.875 13.125 C22.85824219 12.28324219 22.84148438 11.44148438 22.82421875 10.57421875 C22.81777344 9.76855469 22.81132812 8.96289062 22.8046875 8.1328125 C22.79421387 7.38918457 22.78374023 6.64555664 22.77294922 5.87939453 C23 4 23 4 25 2 C27.65537372 1.43479997 30.29144713 1.26211802 33 1 C30.702779 2.74271938 28.40133271 4.39911152 26 6 C25.64716507 9.17180035 25.56359773 12.22897228 25.56054688 15.4140625 C25.47043661 18.57102897 25.1659839 20.72321302 23.53125 23.44921875 C19.7325396 25.77651509 16.30526375 25.54504621 11.9375 25.4375 C10.71450195 25.44813477 10.71450195 25.44813477 9.46679688 25.45898438 C3.56949481 25.39598937 3.56949481 25.39598937 1.26269531 23.79199219 C-0.43490131 21.38279668 -0.3437806 19.82468122 -0.29296875 16.89453125 C-0.28330078 15.91162109 -0.27363281 14.92871094 -0.26367188 13.91601562 C-0.23853516 12.89185547 -0.21339844 11.86769531 -0.1875 10.8125 C-0.17396484 9.77673828 -0.16042969 8.74097656 -0.14648438 7.67382812 C-0.11111389 5.11536301 -0.06175544 2.5579422 0 0 Z " fill="#2289F7" transform="translate(4,33)"/>
<path d="M0 0 C0.33 0.99 0.66 1.98 1 3 C1.66 3.66 2.32 4.32 3 5 C3.14497985 7.58064129 3.18677545 10.04943884 3.125 12.625 C3.11597656 13.33140625 3.10695313 14.0378125 3.09765625 14.765625 C3.07407603 16.51056098 3.03820461 18.25532295 3 20 C2.01 19.67 1.02 19.34 0 19 C-0.66 19.99 -1.32 20.98 -2 22 C-2.17015625 21.24074219 -2.3403125 20.48148438 -2.515625 19.69921875 C-2.75796875 18.70535156 -3.0003125 17.71148437 -3.25 16.6875 C-3.48203125 15.70136719 -3.7140625 14.71523437 -3.953125 13.69921875 C-5.13349443 10.65580355 -6.24822646 9.66584638 -9 8 C-8.67 6.35 -8.34 4.7 -8 3 C-7.01 3 -6.02 3 -5 3 C-5 3.99 -5 4.98 -5 6 C-3.35 4.02 -1.7 2.04 0 0 Z " fill="#2B75FB" transform="translate(42,54)"/>
<path d="M0 0 C0.90105469 0.00902344 1.80210938 0.01804688 2.73046875 0.02734375 C3.41753906 0.03894531 4.10460937 0.05054688 4.8125 0.0625 C5.1425 1.0525 5.4725 2.0425 5.8125 3.0625 C6.4725 3.0625 7.1325 3.0625 7.8125 3.0625 C7.8125 3.7225 7.8125 4.3825 7.8125 5.0625 C7.3175 4.8975 6.8225 4.7325 6.3125 4.5625 C-1.37579989 3.02484002 -6.05627513 4.4067717 -12.625 8.3125 C-13.34365234 8.70824219 -14.06230469 9.10398437 -14.80273438 9.51171875 C-18.75446685 11.55059387 -18.75446685 11.55059387 -20.89477539 15.20996094 C-20.99137451 15.82129883 -21.08797363 16.43263672 -21.1875 17.0625 C-21.8475 17.0625 -22.5075 17.0625 -23.1875 17.0625 C-23.5175 15.7425 -23.8475 14.4225 -24.1875 13.0625 C-23.1975 12.7325 -22.2075 12.4025 -21.1875 12.0625 C-21.08179688 11.45792969 -20.97609375 10.85335938 -20.8671875 10.23046875 C-19.79714537 6.81740333 -17.36178719 6.06051726 -14.3125 4.375 C-12.70761719 3.47201172 -12.70761719 3.47201172 -11.0703125 2.55078125 C-7.13819234 0.52078425 -4.36787075 -0.05672559 0 0 Z " fill="#26D2F5" transform="translate(60.1875,-0.0625)"/>
<path d="M0 0 C0.70382813 0.10699219 1.40765625 0.21398438 2.1328125 0.32421875 C2.4628125 1.64421875 2.7928125 2.96421875 3.1328125 4.32421875 C2.111875 4.35515625 2.111875 4.35515625 1.0703125 4.38671875 C-3.27555782 5.77369864 -6.04235396 8.79928238 -8.8671875 12.32421875 C-9.09328087 14.44786356 -9.09328087 14.44786356 -7.3671875 15.94921875 C-6.8721875 16.40296875 -6.3771875 16.85671875 -5.8671875 17.32421875 C-8.1771875 16.99421875 -10.4871875 16.66421875 -12.8671875 16.32421875 C-13.6875 14.1875 -13.6875 14.1875 -13.8671875 11.32421875 C-12.21257568 9.07867414 -10.73769392 7.39888328 -8.7421875 5.51171875 C-8.25492187 5.00962891 -7.76765625 4.50753906 -7.265625 3.99023438 C-4.85897866 1.6379936 -3.39183737 0.38354564 0 0 Z " fill="#2474F6" transform="translate(90.8671875,15.67578125)"/>
<path d="M0 0 C0 0.66 0 1.32 0 2 C-1.0621875 1.99097656 -2.124375 1.98195313 -3.21875 1.97265625 C-12.84976078 1.92902286 -12.84976078 1.92902286 -21 6.5625 C-22.75454603 8.38988671 -22.75454603 8.38988671 -24 10 C-24.66 9.67 -25.32 9.34 -26 9 C-20.9345443 -2.04317357 -11.09146727 -3.26537114 0 0 Z " fill="#2842F3" transform="translate(68,90)"/>
<path d="M0 0 C4.59995763 1.31427361 8.26430365 2.97586486 12 6 C12 10 12 10 10.390625 11.78125 C9.68421875 12.3484375 8.9778125 12.915625 8.25 13.5 C5.87152822 15.43615948 3.86889722 17.15423857 1.875 19.5 C0 21 0 21 -3.125 20.875 C-6 20 -6 20 -8 18 C-7.030625 18.185625 -6.06125 18.37125 -5.0625 18.5625 C-2.02106838 18.59989465 -0.99369288 17.99514991 1.46875 16.1015625 C3.8090805 13.81307477 6.01589207 11.60498524 8 9 C8 8.01 8 7.02 8 6 C6.22969379 4.56657393 6.22969379 4.56657393 4 3.375 C2.65452253 2.60415353 1.31758498 1.81760854 0 1 C0 0.67 0 0.34 0 0 Z " fill="#223DE8" transform="translate(31,83)"/>
<path d="M0 0 C0.66 0.33 1.32 0.66 2 1 C2.17528316 5.02027658 2.28118359 9.0395628 2.375 13.0625 C2.45041016 14.7630957 2.45041016 14.7630957 2.52734375 16.49804688 C2.69314034 25.97608506 2.69314034 25.97608506 -0.8125 30.21875 C-3.53515767 32.95164323 -6.19482679 34.18460574 -10 35 C-9.8125 33.125 -9.8125 33.125 -9 31 C-6.4375 29.75 -6.4375 29.75 -4 29 C-4 28.34 -4 27.68 -4 27 C-3.01 26.34 -2.02 25.68 -1 25 C0.4094695 19.82926048 0.11457789 14.44495676 0.0625 9.125 C0.05798828 8.24585937 0.05347656 7.36671875 0.04882812 6.4609375 C0.03712337 4.30726197 0.01919069 2.15362183 0 0 Z " fill="#272FDC" transform="translate(113,62)"/>
<path d="M0 0 C1.13308594 -0.01417969 2.26617187 -0.02835938 3.43359375 -0.04296875 C6.41707979 0.17678865 8.05545423 0.62906614 10.5625 2.1875 C8.04196405 3.44776798 6.7082902 3.10624445 3.9375 2.75 C2.71160156 2.59724609 2.71160156 2.59724609 1.4609375 2.44140625 C0.83445312 2.35761719 0.20796875 2.27382813 -0.4375 2.1875 C-0.4375 2.8475 -0.4375 3.5075 -0.4375 4.1875 C-3.0775 4.1875 -5.7175 4.1875 -8.4375 4.1875 C-8.4375 4.8475 -8.4375 5.5075 -8.4375 6.1875 C-9.0975 6.1875 -9.7575 6.1875 -10.4375 6.1875 C-10.7675 9.1575 -11.0975 12.1275 -11.4375 15.1875 C-11.7675 15.1875 -12.0975 15.1875 -12.4375 15.1875 C-12.51864106 13.41742286 -12.57675505 11.64627902 -12.625 9.875 C-12.65980469 8.88886719 -12.69460937 7.90273437 -12.73046875 6.88671875 C-12.4375 4.1875 -12.4375 4.1875 -11.11328125 2.39453125 C-7.5984134 -0.13715678 -4.18310108 0.02374064 0 0 Z " fill="#1B76E1" transform="translate(16.4375,59.8125)"/>
<path d="M0 0 C-0.93972656 0.72316406 -0.93972656 0.72316406 -1.8984375 1.4609375 C-2.71570312 2.09257812 -3.53296875 2.72421875 -4.375 3.375 C-5.18710938 4.00148438 -5.99921875 4.62796875 -6.8359375 5.2734375 C-10.61582185 8.2891575 -11.35264659 9.88054335 -12.125 14.625 C-12.29257813 15.62789062 -12.46015625 16.63078125 -12.6328125 17.6640625 C-12.75398437 18.43492188 -12.87515625 19.20578125 -13 20 C-13.33 20 -13.66 20 -14 20 C-14.08160748 18.10489301 -14.13946459 16.20875496 -14.1875 14.3125 C-14.22230469 13.25675781 -14.25710937 12.20101562 -14.29296875 11.11328125 C-13.88312001 6.75795526 -12.27893524 4.15516731 -9.0625 1.25 C-5.59929053 -0.84891483 -3.888222 -1.296074 0 0 Z " fill="#2AD6FC" transform="translate(20,24)"/>
<path d="M0 0 C0 0.66 0 1.32 0 2 C-0.99 2.495 -0.99 2.495 -2 3 C-2 4.32 -2 5.64 -2 7 C-0.68 7 0.64 7 2 7 C6 11.11111111 6 11.11111111 6 15 C7.32 15.33 8.64 15.66 10 16 C10 16.66 10 17.32 10 18 C5.64309176 17.54247264 3.1429195 14.6938899 0.1875 11.75 C-0.32748047 11.27175781 -0.84246094 10.79351562 -1.37304688 10.30078125 C-2.83203125 8.859375 -2.83203125 8.859375 -5 6 C-4.94921875 3.203125 -4.94921875 3.203125 -4 1 C-2 0 -2 0 0 0 Z " fill="#1D9EF7" transform="translate(39,10)"/>
<path d="M0 0 C0.66 0 1.32 0 2 0 C2.57142857 10.8994709 2.57142857 10.8994709 -1 15 C-3.84214068 15.94738023 -5.67608391 16.13460559 -8.625 16.125 C-9.81996094 16.12886719 -9.81996094 16.12886719 -11.0390625 16.1328125 C-13 16 -13 16 -14 15 C-14.04080783 13.00041636 -14.04254356 10.99954746 -14 9 C-13.67 9 -13.34 9 -13 9 C-13 10.65 -13 12.3 -13 14 C-9.7 14 -6.4 14 -3 14 C-3 13.34 -3 12.68 -3 12 C-2.01 12 -1.02 12 0 12 C0 8.04 0 4.08 0 0 Z " fill="#2025B4" transform="translate(80,65)"/>
<path d="M0 0 C0.66 0.33 1.32 0.66 2 1 C1.67 1.99 1.34 2.98 1 4 C1.804375 4.4125 2.60875 4.825 3.4375 5.25 C6 7 6 7 6.8125 9.1875 C6.874375 9.785625 6.93625 10.38375 7 11 C8.32 11.33 9.64 11.66 11 12 C11 12.99 11 13.98 11 15 C11.99 15 12.98 15 14 15 C14.33 14.01 14.66 13.02 15 12 C15.99 12.66 16.98 13.32 18 14 C14.70400669 16.19732887 13.82337678 16.64094509 10 16 C7.79750985 14.32317083 6.02910512 12.77453424 4.125 10.8125 C3.61453125 10.32974609 3.1040625 9.84699219 2.578125 9.34960938 C1.1328125 7.89453125 1.1328125 7.89453125 -1 5 C-0.8203125 2.13671875 -0.8203125 2.13671875 0 0 Z " fill="#202BCD" transform="translate(78,88)"/>
<path d="M0 0 C0.99 0.33 1.98 0.66 3 1 C-2.02090008 5.09599743 -4.23042073 6.16747368 -10.75 6.25 C-11.96171875 6.27578125 -13.1734375 6.3015625 -14.421875 6.328125 C-18.2748711 5.97479348 -20.68175572 4.93394605 -24 3 C-24 2.67 -24 2.34 -24 2 C-22.02 2 -20.04 2 -18 2 C-18 2.33 -18 2.66 -18 3 C-13.05 3.33 -8.1 3.66 -3 4 C-3 3.34 -3 2.68 -3 2 C-2.01 1.34 -1.02 0.68 0 0 Z " fill="#2081F5" transform="translate(71,26)"/>
<path d="M0 0 C1.21236328 0.01353516 1.21236328 0.01353516 2.44921875 0.02734375 C3.37154297 0.04474609 3.37154297 0.04474609 4.3125 0.0625 C4.3125 0.3925 4.3125 0.7225 4.3125 1.0625 C3.60222656 1.19527344 2.89195313 1.32804687 2.16015625 1.46484375 C1.24105469 1.64144531 0.32195313 1.81804688 -0.625 2 C-1.54152344 2.17402344 -2.45804688 2.34804688 -3.40234375 2.52734375 C-5.64039844 2.83964988 -5.64039844 2.83964988 -6.6875 4.0625 C-6.89646317 5.87061184 -7.05530361 7.68466032 -7.1875 9.5 C-7.57757634 14.84265267 -7.57757634 14.84265267 -8.6875 17.0625 C-9.3475 16.7325 -10.0075 16.4025 -10.6875 16.0625 C-10.5733134 14.12433265 -10.44576577 12.18694901 -10.3125 10.25 C-10.24289063 9.17105469 -10.17328125 8.09210937 -10.1015625 6.98046875 C-9.6875 4.0625 -9.6875 4.0625 -7.6875 1.0625 C-4.80538698 0.10179566 -2.98899956 -0.04331883 0 0 Z " fill="#207CED" transform="translate(47.6875,38.9375)"/>
<path d="M0 0 C0.89203125 0.01804688 1.7840625 0.03609375 2.703125 0.0546875 C3.71632813 0.08949219 3.71632813 0.08949219 4.75 0.125 C5.08 1.115 5.41 2.105 5.75 3.125 C6.41 3.125 7.07 3.125 7.75 3.125 C7.75 3.785 7.75 4.445 7.75 5.125 C5.29104382 4.81688262 2.83291693 4.50371012 0.375 4.1875 C-0.32367188 4.10048828 -1.02234375 4.01347656 -1.7421875 3.92382812 C-7.0234375 3.23828125 -7.0234375 3.23828125 -9.25 2.125 C-6.03817851 0.21891902 -3.71117397 -0.09766247 0 0 Z " fill="#26CCF4" transform="translate(60.25,-0.125)"/>
<path d="M0 0 C1.8125 1.375 1.8125 1.375 3 3 C3 3.99 3 4.98 3 6 C2.401875 5.690625 1.80375 5.38125 1.1875 5.0625 C-2.35883326 3.33999528 -4.25673891 2.83829828 -8 4 C-7.625 2.0625 -7.625 2.0625 -7 0 C-4.26634878 -1.36682561 -2.89333621 -0.84683011 0 0 Z " fill="#2ADDFD" transform="translate(32,17)"/>
<path d="M0 0 C1.32 0.66 2.64 1.32 4 2 C1.03 4.97 -1.94 7.94 -5 11 C-5.99 10.67 -6.98 10.34 -8 10 C-5.36 6.7 -2.72 3.4 0 0 Z " fill="#2697FC" transform="translate(80,15)"/>
<path d="M0 0 C-1.7015625 0.5259375 -1.7015625 0.5259375 -3.4375 1.0625 C-5.50007857 2.03278964 -5.50007857 2.03278964 -7 4 C-7.9563786 9.01555367 -8.04436057 13.90487197 -8 19 C-8.33 19 -8.66 19 -9 19 C-9.22114415 16.20880221 -9.42743301 13.4178788 -9.625 10.625 C-9.68945312 9.8309375 -9.75390625 9.036875 -9.8203125 8.21875 C-9.96058587 6.14971776 -9.98758237 4.07374464 -10 2 C-6.86358686 -1.13641314 -4.14410883 -1.38136961 0 0 Z " fill="#1676EB" transform="translate(37,35)"/>
<path d="M0 0 C2.05078125 0.03255208 4.1015625 0.06510417 6.15234375 0.09765625 C6.15234375 0.75765625 6.15234375 1.41765625 6.15234375 2.09765625 C3.51234375 2.42765625 0.87234375 2.75765625 -1.84765625 3.09765625 C-1.84765625 7.38765625 -1.84765625 11.67765625 -1.84765625 16.09765625 C-2.17765625 16.09765625 -2.50765625 16.09765625 -2.84765625 16.09765625 C-2.8745072 13.61841824 -2.89442172 11.13946785 -2.91015625 8.66015625 C-2.92272461 7.59958008 -2.92272461 7.59958008 -2.93554688 6.51757812 C-2.94419213 4.71072066 -2.89985636 2.90378022 -2.84765625 1.09765625 C-1.84765625 0.09765625 -1.84765625 0.09765625 0 0 Z " fill="#3B40F4" transform="translate(94.84765625,61.90234375)"/>
<path d="M0 0 C0.66 0 1.32 0 2 0 C1.67 4.95 1.34 9.9 1 15 C0.34 15 -0.32 15 -1 15 C-1.02703381 13.06257659 -1.04641125 11.12504521 -1.0625 9.1875 C-1.07410156 8.10855469 -1.08570312 7.02960937 -1.09765625 5.91796875 C-1 3 -1 3 0 0 Z " fill="#2CA3FD" transform="translate(26,40)"/>
<path d="M0 0 C2.97 0.33 5.94 0.66 9 1 C9 1.33 9 1.66 9 2 C11.31 2.33 13.62 2.66 16 3 C16 3.33 16 3.66 16 4 C9.86946489 4.32712342 5.37330889 4.39366878 0 1 C0 0.67 0 0.34 0 0 Z " fill="#1C27BF" transform="translate(49,116)"/>
<path d="M0 0 C0.99 0.495 0.99 0.495 2 1 C1.01 1.495 1.01 1.495 0 2 C0 1.34 0 0.68 0 0 Z M-3 1 C-2.01 1.33 -1.02 1.66 0 2 C-0.66 6.62 -1.32 11.24 -2 16 C-4.09566561 11.80866878 -4.15337517 10.68835147 -3.625 6.25 C-3.51414062 5.26515625 -3.40328125 4.2803125 -3.2890625 3.265625 C-3.19367187 2.51796875 -3.09828125 1.7703125 -3 1 Z " fill="#2B96FB" transform="translate(8,64)"/>
<path d="M0 0 C1.45880109 0.14107747 2.91703551 0.28802415 4.375 0.4375 C5.59316406 0.55931641 5.59316406 0.55931641 6.8359375 0.68359375 C9 1 9 1 11 2 C11 2.99 11 3.98 11 5 C7.37 4.34 3.74 3.68 0 3 C0 2.01 0 1.02 0 0 Z " fill="#2B9CFC" transform="translate(16,61)"/>
<path d="M0 0 C0.66 0.33 1.32 0.66 2 1 C1.375 2.9375 1.375 2.9375 0 5 C-5.18918919 6.40540541 -5.18918919 6.40540541 -8 5 C-6.71475739 4.13619741 -5.42157581 3.28419631 -4.125 2.4375 C-3.04605469 1.72400391 -3.04605469 1.72400391 -1.9453125 0.99609375 C-1.30335937 0.66738281 -0.66140625 0.33867187 0 0 Z " fill="#24C7F7" transform="translate(23,18)"/>
<path d="M0 0 C-0.33 1.32 -0.66 2.64 -1 4 C-2.875 4.625 -2.875 4.625 -5 5 C-5.66 4.34 -6.32 3.68 -7 3 C-2.25 0 -2.25 0 0 0 Z " fill="#2934EB" transform="translate(87,84)"/>
<path d="M0 0 C1.32 0.33 2.64 0.66 4 1 C3.34 1.61875 2.68 2.2375 2 2.875 C-0.2284549 4.75637427 -0.2284549 4.75637427 0 7 C-0.66 7 -1.32 7 -2 7 C-2.33 5.68 -2.66 4.36 -3 3 C-2.01 2.67 -1.02 2.34 0 2 C0 1.34 0 0.68 0 0 Z " fill="#2CE9FE" transform="translate(39,10)"/>
<path d="M0 0 C2.125 0.9375 2.125 0.9375 4 2 C-0.75 5 -0.75 5 -3 5 C-2.625 3.0625 -2.625 3.0625 -2 1 C-1.34 0.67 -0.68 0.34 0 0 Z " fill="#212DCD" transform="translate(99,96)"/>
<path d="M0 0 C2.125 0.9375 2.125 0.9375 4 2 C-0.75 5 -0.75 5 -3 5 C-2.625 3.0625 -2.625 3.0625 -2 1 C-1.34 0.67 -0.68 0.34 0 0 Z " fill="#212ED2" transform="translate(106,92)"/>
<path d="M0 0 C0.99 0 1.98 0 3 0 C5.1875 2.5 5.1875 2.5 7 5 C5.35 5 3.7 5 2 5 C1.34 3.35 0.68 1.7 0 0 Z " fill="#2C74FC" transform="translate(78,28)"/>
<path d="M0 0 C0.66 0 1.32 0 2 0 C1.67 1.65 1.34 3.3 1 5 C-0.32 5.33 -1.64 5.66 -3 6 C-2.42655063 3.13275314 -2.1385485 2.1385485 0 0 Z " fill="#219EF8" transform="translate(41,27)"/>
<path d="M0 0 C0.66 0.33 1.32 0.66 2 1 C2 2.65 2 4.3 2 6 C0.68 6 -0.64 6 -2 6 C-1.125 1.125 -1.125 1.125 0 0 Z " fill="#247CF3" transform="translate(35,56)"/>
</svg>
